<svg xmlns="http://www.w3.org/2000/svg" viewBox="0 0 65 65"><defs><style>.cls-1{fill:#6441e5;}</style></defs><g id="Layer_2" data-name="Layer 2"><g id="Layer_1-2" data-name="Layer 1"><g id="Layer_2-2" data-name="Layer 2"><g id="Shop"><path id="cart" class="cls-1" d="M52,6.5H65V0H45.5V13H6.5V46.09A10.57,10.57,0,0,0,0,55.25a9.75,9.75,0,0,0,19.5,0A10.52,10.52,0,0,0,13,46.09V45.5H45.5v.59A10.57,10.57,0,0,0,39,55.25a9.75,9.75,0,0,0,19.5,0A10.52,10.52,0,0,0,52,46.09ZM9.75,58.5A3.25,3.25,0,1,1,13,55.25,3.26,3.26,0,0,1,9.75,58.5ZM13,39V19.5H45.5V39ZM48.75,58.5A3.25,3.25,0,1,1,52,55.25,3.26,3.26,0,0,1,48.75,58.5Z"/></g></g></g></g></svg>