<svg xmlns="http://www.w3.org/2000/svg" viewBox="0 0 65 65"><defs><style>.cls-1{fill:#51ae1e;}</style></defs><g id="Layer_2" data-name="Layer 2"><g id="Layer_1-2" data-name="Layer 1"><g id="Layer_2-2" data-name="Layer 2"><g id="Emoji"><path id="emoji_happy_circle" data-name="emoji happy circle" class="cls-1" d="M32.5,0A32.5,32.5,0,1,0,65,32.5,32.5,32.5,0,0,0,32.5,0Zm0,58.5a26,26,0,1,1,26-26A26,26,0,0,1,32.5,58.5Zm-13-26A6.5,6.5,0,1,1,26,26,6.5,6.5,0,0,1,19.5,32.5Zm28.89,7c-3.25,16.64-28.5,16.64-31.78,0a3.25,3.25,0,0,1,2.69-3.73,3.43,3.43,0,0,1,.56,0,3.25,3.25,0,0,1,3.25,2.63,9.75,9.75,0,0,0,18.91,0,3.23,3.23,0,0,1,6.41.71A2.09,2.09,0,0,1,48.39,39.52ZM52,26a6.5,6.5,0,1,1-6.5-6.5A6.5,6.5,0,0,1,52,26Z"/></g></g></g></g></svg>