<svg xmlns="http://www.w3.org/2000/svg" viewBox="0 0 64.9 65"><defs><style>.cls-1{fill:#6441e5;}</style></defs><g id="Layer_2" data-name="Layer 2"><g id="Layer_1-2" data-name="Layer 1"><g id="Layer_2-2" data-name="Layer 2"><g id="Social"><path id="instagram" class="cls-1" d="M21.52,32.46A10.77,10.77,0,1,1,32.29,43.23h-.1A10.74,10.74,0,0,1,21.45,32.49v0m-5.8,0A16.58,16.58,0,1,0,32.26,15.91h-.07A16.57,16.57,0,0,0,15.65,32.46M45.54,15.23a3.87,3.87,0,1,0,3.91-3.83h0a3.86,3.86,0,0,0-3.87,3.83M19.29,58.71a17.55,17.55,0,0,1-6-1.1,10.53,10.53,0,0,1-6.16-6C5.2,46.71,5.84,23.33,6,19.56A13.91,13.91,0,0,1,9.61,9.69C12.84,6.46,17,4.91,45.38,6.17a13.9,13.9,0,0,1,9.68,3.52c3.22,3.22,4.84,7.45,3.51,35.76a17.76,17.76,0,0,1-1.16,6.16c-2.93,7.52-9.67,8.55-38.18,7.23M19,.4A19.33,19.33,0,0,0,5.42,5.62,19.35,19.35,0,0,0,.2,19.17c0,3.22-1,28,1.51,34.41A16.31,16.31,0,0,0,11.13,63,23.6,23.6,0,0,0,19,64.52c28.7,1.32,39.38.61,43.86-10.94a24,24,0,0,0,1.61-7.8c1.33-28.87-.19-35.13-5.22-40.16C55.12,1.65,50.45-1,19,.4"/></g></g></g></g></svg>