<svg xmlns="http://www.w3.org/2000/svg" viewBox="0 0 65 51.98"><defs><style>.cls-1{fill:#6441e5;}</style></defs><g id="Layer_2" data-name="Layer 2"><g id="Layer_1-2" data-name="Layer 1"><g id="Layer_2-2" data-name="Layer 2"><g id="Utils"><path id="love" class="cls-1" d="M33.79,7.48a1.69,1.69,0,0,1-2.38.15,1.06,1.06,0,0,1-.15-.15C19.75-6.54-.6.42,0,17.78.53,31.57,10.32,38.39,21.83,48.12A16.5,16.5,0,0,0,32.52,52a16.72,16.72,0,0,0,10.77-3.93C54.66,38.3,64.32,31.57,65,18.14,65.88.45,45.27-6.54,33.79,7.48ZM39,43.24a9.73,9.73,0,0,1-6.5,2.37,10.13,10.13,0,0,1-6.5-2.4C14.32,33.45,6.87,28.12,6.48,17.43,6.13,6.21,18.55,2.08,26,11.38a8.33,8.33,0,0,0,11.7,1.28A8.54,8.54,0,0,0,39,11.35c7.44-9.17,20.19-5.27,19.5,6.5C58,28.38,50.28,33.78,39,43.37Z"/></g></g></g></g></svg>