<svg xmlns="http://www.w3.org/2000/svg" viewBox="0 0 65 64.93"><defs><style>.cls-1{fill:#6441e5;}</style></defs><g id="Layer_2" data-name="Layer 2"><g id="Layer_1-2" data-name="Layer 1"><g id="Layer_2-2" data-name="Layer 2"><g id="Network_Web" data-name="Network Web"><path id="link_round" data-name="link round" class="cls-1" d="M39.79,20.52l4.64,4.6L25,44.51l-4.6-4.6ZM28.7,54.69A13.05,13.05,0,0,1,10.23,36.25l8.35-8.38L14,23.26,5.63,31.62A19.58,19.58,0,0,0,33.3,59.32l8.39-8.39-4.64-4.6ZM59.27,5.74a19.57,19.57,0,0,0-27.68,0h0L23.22,14l4.6,4.6,8.38-8.35a13.05,13.05,0,1,1,18.91,18c-.15.17-.31.32-.47.48L46.29,37.1l4.6,4.63,8.38-8.38a19.57,19.57,0,0,0,0-27.67Z"/></g></g></g></g></svg>