<svg xmlns="http://www.w3.org/2000/svg" viewBox="0 0 45.5 65"><defs><style>.cls-1{fill:#6441e5;}</style></defs><g id="Layer_2" data-name="Layer 2"><g id="Layer_1-2" data-name="Layer 1"><g id="Layer_2-2" data-name="Layer 2"><g id="Map_Transport" data-name="Map Transport"><path id="pin_sharp_circle" data-name="pin sharp circle" class="cls-1" d="M22.75,0A22.76,22.76,0,0,0,0,22.75C0,35.33,22.75,65,22.75,65S45.5,35.33,45.5,22.75A22.76,22.76,0,0,0,22.75,0Zm0,55.25S6.5,32.5,6.5,22.75a16.25,16.25,0,0,1,32.5,0C39,32.5,22.75,55.25,22.75,55.25Zm0-40.17a9.75,9.75,0,1,0,9.75,9.75A9.76,9.76,0,0,0,22.75,15.08Zm0,13A3.25,3.25,0,1,1,26,24.83a3.26,3.26,0,0,1-3.25,3.25Z"/></g></g></g></g></svg>