<svg xmlns="http://www.w3.org/2000/svg" viewBox="0 0 143.6 100.51"><defs><style>.cls-1{fill:#e30613;}</style></defs><g id="Layer_2" data-name="Layer 2"><g id="Layer_1-2" data-name="Layer 1"><g id="Layer_2-2" data-name="Layer 2"><g id="Layer_1-2-2" data-name="Layer 1-2"><path class="cls-1" d="M133.82,24H114.66a50.32,50.32,0,0,0-78.4-9.27h0A50.11,50.11,0,0,0,28.93,24H9.77A9.79,9.79,0,0,0,0,33.76v33a9.79,9.79,0,0,0,9.77,9.78H28.93a50.78,50.78,0,0,0,7.33,9.27,50.25,50.25,0,0,0,71.06,0h0a50.78,50.78,0,0,0,7.33-9.27h19.16a9.79,9.79,0,0,0,9.78-9.78v-33A9.79,9.79,0,0,0,133.82,24Zm7,42.75a7,7,0,0,1-7,7H9.77a7,7,0,0,1-7-7v-33a7,7,0,0,1,7-7H133.82a7,7,0,0,1,7,7Zm-69,31A47.49,47.49,0,0,1,32.27,76.5H44.1c.23.24.47.49.71.72a38.16,38.16,0,0,0,54,0h0c.24-.23.48-.48.71-.72h11.83A47.44,47.44,0,0,1,71.79,97.72ZM48.11,76.5H95.48a35.32,35.32,0,0,1-47.37,0ZM71.79,2.78A47.44,47.44,0,0,1,111.32,24H99.49c-.23-.25-.47-.49-.71-.73a38.17,38.17,0,0,0-54,0h0c-.24.24-.48.48-.71.73H32.27A47.46,47.46,0,0,1,71.79,2.78ZM95.48,24H48.11A35.32,35.32,0,0,1,95.48,24Z"/><polygon class="cls-1" points="21.01 40.38 17.39 40.38 17.39 60.13 30.3 60.13 30.3 57.07 21.01 57.07 21.01 40.38"/><path class="cls-1" d="M45.88,41.35a9.85,9.85,0,0,0-5.05-1.25,9.88,9.88,0,0,0-5.07,1.25,8.25,8.25,0,0,0-3.26,3.51,12,12,0,0,0-1.13,5.38,11.61,11.61,0,0,0,1.15,5.36,8.46,8.46,0,0,0,3.26,3.55,9.68,9.68,0,0,0,5,1.26,9.68,9.68,0,0,0,5.05-1.26,8.51,8.51,0,0,0,3.28-3.55,11.67,11.67,0,0,0,1.17-5.39,11.56,11.56,0,0,0-1.17-5.35A8.41,8.41,0,0,0,45.88,41.35Zm-.82,14.1a5.08,5.08,0,0,1-4.23,1.87,5,5,0,0,1-4.25-1.87,8.38,8.38,0,0,1-1.43-5.21A8.3,8.3,0,0,1,36.58,45a5,5,0,0,1,4.25-1.85A5.12,5.12,0,0,1,45.08,45a8.18,8.18,0,0,1,1.47,5.21,8.2,8.2,0,0,1-1.49,5.21Z"/><path class="cls-1" d="M63.35,43.29a7.79,7.79,0,0,1,2.79.47,9.34,9.34,0,0,1,2.53,1.53l1.18-2.86A7.91,7.91,0,0,0,67,40.69a11.34,11.34,0,0,0-3.74-.59A10.52,10.52,0,0,0,58,41.35a8.33,8.33,0,0,0-3.37,3.51,11.45,11.45,0,0,0-1.18,5.38,11.55,11.55,0,0,0,1.18,5.39A8.26,8.26,0,0,0,58,59.16a11.7,11.7,0,0,0,9,.63,8.51,8.51,0,0,0,2.87-1.73L68.67,55.2a9,9,0,0,1-2.53,1.55,7.83,7.83,0,0,1-2.79.47,5.76,5.76,0,0,1-4.58-1.82,7.65,7.65,0,0,1-1.58-5.16,7.6,7.6,0,0,1,1.58-5.14A5.82,5.82,0,0,1,63.35,43.29Z"/><polygon class="cls-1" points="89.87 40.38 85.5 40.38 76.91 49.12 76.85 49.12 76.85 40.38 73.24 40.38 73.24 60.13 76.85 60.13 76.85 51 76.91 51 86.04 60.13 90.55 60.13 80.36 49.87 89.87 40.38"/><polygon class="cls-1" points="91.89 60.13 105.19 60.13 105.19 57.27 95.36 57.27 95.36 51.53 104.55 51.53 104.55 48.67 95.36 48.67 95.36 43.21 105.19 43.21 105.19 40.38 91.89 40.38 91.89 60.13"/><path class="cls-1" d="M125,44.9a8,8,0,0,0-3.54-3.36,12.86,12.86,0,0,0-5.73-1.16h-7.17V60.12h7.17A12.72,12.72,0,0,0,121.45,59,8,8,0,0,0,125,55.56a11,11,0,0,0,1.21-5.32A11,11,0,0,0,125,44.9Zm-4.17,10.52q-1.74,1.71-5.32,1.71h-3.33V43.35h3.33q3.59,0,5.32,1.69t1.74,5.2a7,7,0,0,1-1.74,5.18Z"/></g></g></g></g></svg>