<svg xmlns="http://www.w3.org/2000/svg" viewBox="0 0 65 58.5"><defs><style>.cls-1{fill:#6441e5;}</style></defs><g id="Layer_2" data-name="Layer 2"><g id="Layer_1-2" data-name="Layer 1"><g id="Layer_2-2" data-name="Layer 2"><g id="Email_Messages" data-name="Email Messages"><path id="message_three_points" data-name="message three points" class="cls-1" d="M0,0V48.75H22.91c2.57,4.91,4.33,9.75,9.75,9.75s6.89-4.29,9.75-9.75H65V0ZM58.5,42.25H39.2l-1.92,3.67L34,51.45a1.49,1.49,0,0,1-1.2.74c-1.56,0-3.74-4.84-4.49-6.24l-2-3.7H6.5V6.5h52ZM9.75,26.33a6.5,6.5,0,1,1,6.5,6.5A6.5,6.5,0,0,1,9.75,26.33Zm16.25,0a6.5,6.5,0,1,1,6.5,6.5A6.5,6.5,0,0,1,26,26.33Zm16.25,0a6.5,6.5,0,1,1,6.5,6.5A6.5,6.5,0,0,1,42.25,26.33Z"/></g></g></g></g></svg>