<svg xmlns="http://www.w3.org/2000/svg" viewBox="0 0 52 65"><defs><style>.cls-1{fill:#6441e5;}</style></defs><g id="Layer_2" data-name="Layer 2"><g id="Layer_1-2" data-name="Layer 1"><g id="Layer_2-2" data-name="Layer 2"><g id="Media"><path id="microphone" class="cls-1" d="M27.27,37.31A13.39,13.39,0,0,0,39,23.82V0H13V24.38a13,13,0,0,0,13,13C26.43,37.37,26.85,37.35,27.27,37.31ZM19.5,6.5h13V24a6.73,6.73,0,0,1-5.39,6.76,6.51,6.51,0,0,1-7.52-5.3,6.89,6.89,0,0,1-.09-1.1Zm9.75,43.68V58.5H39V65H13V58.5h9.75V50.18A25.22,25.22,0,0,1,0,26H6.5c0,26,39,26,39,0H52A25.22,25.22,0,0,1,29.25,50.18Z"/></g></g></g></g></svg>