<svg xmlns="http://www.w3.org/2000/svg" viewBox="0 0 65 65"><defs><style>.cls-1{fill:#6441e5;}</style></defs><g id="Layer_2" data-name="Layer 2"><g id="Layer_1-2" data-name="Layer 1"><g id="Layer_2-2" data-name="Layer 2"><g id="Emoji"><path id="emoji_neutral_circle" data-name="emoji neutral circle" class="cls-1" d="M32.5,0A32.5,32.5,0,1,0,65,32.5,32.5,32.5,0,0,0,32.5,0Zm0,58.5a26,26,0,1,1,26-26A26,26,0,0,1,32.5,58.5ZM52,43.62a3.26,3.26,0,0,1-3.25,3.25H16.25a3.25,3.25,0,0,1,0-6.5h32.5A3.25,3.25,0,0,1,52,43.62ZM13,26a6.5,6.5,0,1,1,6.5,6.5A6.5,6.5,0,0,1,13,26Zm26,0a6.5,6.5,0,1,1,6.5,6.5A6.5,6.5,0,0,1,39,26Z"/></g></g></g></g></svg>