<svg xmlns="http://www.w3.org/2000/svg" viewBox="0 0 523.63 523.63"><defs><style>.cls-1{fill:#6441e5;}</style></defs><g id="Layer_2" data-name="Layer 2"><g id="Layer_1-2" data-name="Layer 1"><path class="cls-1" d="M192.09,192.09A304.89,304.89,0,0,1,67.48,130.86q-11.73-9.62-22.71-20.57A306.24,306.24,0,0,1,.85,54.89a65.49,65.49,0,0,1,54-54,306.24,306.24,0,0,1,55.4,43.92q11,11,20.57,22.71A304.89,304.89,0,0,1,192.09,192.09Z"/><path class="cls-1" d="M523.63,147.36V376.27q-1.89-1.95-3.83-3.89A364.3,364.3,0,0,0,265.55,265.55,364.3,364.3,0,0,0,372.38,519.8q1.94,1.94,3.89,3.83H147.36q1.95-1.89,3.89-3.83A363.08,363.08,0,0,0,252.84,323.72a364.3,364.3,0,0,0,5.24-58.17A364.3,364.3,0,0,0,3.83,372.38Q1.9,374.32,0,376.27V147.36q1.89,1.95,3.83,3.89A363,363,0,0,0,199.91,252.84a364.3,364.3,0,0,0,58.17,5.24,364.3,364.3,0,0,0-5.24-58.17A363,363,0,0,0,151.25,3.83Q149.32,1.9,147.36,0H376.27q-1.95,1.89-3.89,3.83A364.3,364.3,0,0,0,265.55,258.08a364.3,364.3,0,0,0,58.17-5.24A363.08,363.08,0,0,0,519.8,151.25Q521.74,149.32,523.63,147.36Z"/><path class="cls-1" d="M522.78,54.89a306.24,306.24,0,0,1-43.92,55.4q-11,11-22.71,20.57a304.89,304.89,0,0,1-124.61,61.23A304.89,304.89,0,0,1,392.77,67.48q9.62-11.73,20.57-22.71A306.24,306.24,0,0,1,468.74.85,65.49,65.49,0,0,1,522.78,54.89Z"/><path class="cls-1" d="M522.78,468.74a65.49,65.49,0,0,1-54,54,306.24,306.24,0,0,1-55.4-43.92q-11-11-20.57-22.71a304.89,304.89,0,0,1-61.23-124.61,304.89,304.89,0,0,1,124.61,61.23q11.73,9.62,22.71,20.57A306.24,306.24,0,0,1,522.78,468.74Z"/><path class="cls-1" d="M192.09,331.54a304.89,304.89,0,0,1-61.23,124.61q-9.62,11.73-20.57,22.71a306.24,306.24,0,0,1-55.4,43.92,65.49,65.49,0,0,1-54-54,306.24,306.24,0,0,1,43.92-55.4q11-11,22.71-20.57A304.89,304.89,0,0,1,192.09,331.54Z"/></g></g></svg>