<svg xmlns="http://www.w3.org/2000/svg" viewBox="0 0 520.52 101.86"><defs><style>.cls-1{fill:#1f1156;}.cls-2{fill:#6441e5;}</style></defs><g id="Layer_2" data-name="Layer 2"><g id="Layer_1-2" data-name="Layer 1"><path class="cls-1" d="M171.22,27a28.71,28.71,0,0,0-26.73,0,21.71,21.71,0,0,0-8.62,9.29,31.46,31.46,0,0,0-3,14.22,31.26,31.26,0,0,0,3,14.18,22.34,22.34,0,0,0,8.63,9.36,28.33,28.33,0,0,0,26.69,0,22.45,22.45,0,0,0,8.71-9.36A31.2,31.2,0,0,0,183,50.45a30.74,30.74,0,0,0-3.07-14.14A22.21,22.21,0,0,0,171.22,27ZM169.08,64.3q-3.93,5-11.18,5-7.49,0-11.26-5t-3.78-13.77q0-8.89,3.78-13.78t11.26-4.88q7.32,0,11.21,4.88T173,50.53Q173,59.33,169.08,64.3Z"/><polygon class="cls-1" points="207.34 65.69 196.77 39.27 186.92 39.27 203.07 76.67 211.21 76.67 227.43 39.27 218.17 39.27 207.34 65.69"/><rect class="cls-1" x="231.87" y="23.2" width="10.29" height="9.03"/><rect class="cls-1" x="232.39" y="39.27" width="9.26" height="37.4"/><path class="cls-1" d="M269.71,45.71a13.75,13.75,0,0,1,4.85.93A13.45,13.45,0,0,1,279,49.42L281.85,43a14.58,14.58,0,0,0-5.73-3.29,23.06,23.06,0,0,0-7.22-1.15,21.12,21.12,0,0,0-10.08,2.3,16.41,16.41,0,0,0-6.7,6.59,20.94,20.94,0,0,0-2.4,10.36,21.83,21.83,0,0,0,2.37,10.48,16.4,16.4,0,0,0,6.7,6.78,20.75,20.75,0,0,0,10.11,2.37A22.23,22.23,0,0,0,276,76.22a15.67,15.67,0,0,0,5.81-3.33L279,66.52a13.64,13.64,0,0,1-4.55,2.74,14.25,14.25,0,0,1-4.78.89A9.73,9.73,0,0,1,262,67c-1.85-2.13-2.78-5.16-2.78-9.11s.93-7,2.78-9A9.85,9.85,0,0,1,269.71,45.71Z"/><path class="cls-1" d="M315.72,45.48a11.34,11.34,0,0,0-4.13-4.62,15,15,0,0,0-8.33-2.33,15.79,15.79,0,0,0-8.59,2.33,15.63,15.63,0,0,0-5.78,6.67,23.93,23.93,0,0,0-2.07,10.4,24.18,24.18,0,0,0,2.07,10.44,15.48,15.48,0,0,0,5.78,6.7,15.71,15.71,0,0,0,8.59,2.34,15.06,15.06,0,0,0,8.22-2.3,11.33,11.33,0,0,0,3.94-4.1l.05,5.66h9.19V48.6c0-1.53.06-3.08.18-4.66s.26-3.14.41-4.67h-8.89Zm-2.84,21.74a9.61,9.61,0,0,1-14.1,0c-1.76-2-2.63-5.14-2.63-9.29s.89-7.23,2.66-9.25a9.66,9.66,0,0,1,14.07,0q2.67,3,2.67,9.25T312.88,67.22Z"/><path class="cls-1" d="M378.94,38.53a14.54,14.54,0,0,0-8.15,2.33,12.93,12.93,0,0,0-4.41,4.83,10.54,10.54,0,0,0-3.62-5,12.28,12.28,0,0,0-7.37-2.11,13.54,13.54,0,0,0-7.67,2.15,12.38,12.38,0,0,0-4,4.48l-.59-5.89h-9c.2,1.53.35,3.09.45,4.67s.15,3.13.15,4.66V76.67H344V55.78a11.24,11.24,0,0,1,2.19-7.29,7.33,7.33,0,0,1,6-2.7,5.55,5.55,0,0,1,4.74,2q1.49,2,1.48,6.4V76.67h9.26V55.78a11.13,11.13,0,0,1,2.22-7.29,7.45,7.45,0,0,1,6.07-2.7,5.54,5.54,0,0,1,4.74,2q1.49,2,1.48,6.4V76.67h9.26V53.78q0-7.85-3.11-11.55T378.94,38.53Z"/><path class="cls-1" d="M431.36,40.86a15.94,15.94,0,0,0-8.66-2.33,15,15,0,0,0-8.33,2.33,11,11,0,0,0-4.07,4.56l-.63-6.15h-9c.19,1.53.34,3.09.44,4.67s.15,3.13.15,4.66V92.66h9.25V70.92a11.23,11.23,0,0,0,3.93,4.19,14.82,14.82,0,0,0,8.22,2.3,15.86,15.86,0,0,0,8.66-2.34,15.48,15.48,0,0,0,5.78-6.7,24.18,24.18,0,0,0,2.07-10.44,23.93,23.93,0,0,0-2.07-10.4A15.63,15.63,0,0,0,431.36,40.86Zm-4.14,26.36a9.67,9.67,0,0,1-14.15,0c-1.78-2-2.66-5.14-2.66-9.29s.88-7.23,2.66-9.25a9.75,9.75,0,0,1,14.15,0q2.65,3,2.66,9.25T427.22,67.22Z"/><path class="cls-1" d="M472,60.38a9.93,9.93,0,0,1-2.48,7,8.36,8.36,0,0,1-6.41,2.67,6.48,6.48,0,0,1-5.18-2q-1.71-2-1.71-6.11V39.27H447V62.08q0,7.77,3.4,11.55t10.3,3.78a13.52,13.52,0,0,0,7.66-2.19,12.56,12.56,0,0,0,3.89-4.11v5.56h9V39.27H472Z"/><path class="cls-1" d="M518,59a14.82,14.82,0,0,0-7.51-3.37L503,54.23a6.93,6.93,0,0,1-3.37-1.59,3.7,3.7,0,0,1-1.07-2.71,4.22,4.22,0,0,1,1.78-3.51c1.18-.92,3.06-1.37,5.62-1.37a17.43,17.43,0,0,1,5.78,1A17.65,17.65,0,0,1,517,49l2.66-6a16.33,16.33,0,0,0-6.18-3.33,26.81,26.81,0,0,0-7.81-1.11,20.78,20.78,0,0,0-8.26,1.52,12.46,12.46,0,0,0-5.4,4.18,10.38,10.38,0,0,0-1.89,6.15A9,9,0,0,0,492.64,57a14.07,14.07,0,0,0,7.22,3.55l7.4,1.41a8.14,8.14,0,0,1,3.67,1.52,3.41,3.41,0,0,1,1.15,2.7,4,4,0,0,1-1.82,3.41,9.73,9.73,0,0,1-5.51,1.26,23.54,23.54,0,0,1-6.89-1,22.58,22.58,0,0,1-6.22-3L489.05,73a20.38,20.38,0,0,0,6.77,3.22,32.46,32.46,0,0,0,8.85,1.15A22.44,22.44,0,0,0,513,76a12.52,12.52,0,0,0,5.55-4.07,10.34,10.34,0,0,0,2-6.37A8.53,8.53,0,0,0,518,59Z"/><path class="cls-2" d="M37.37,37.37A59.25,59.25,0,0,1,13.13,25.46c-1.52-1.25-3-2.58-4.42-4A59.94,59.94,0,0,1,.17,10.68,12.72,12.72,0,0,1,10.68.17,59.94,59.94,0,0,1,21.46,8.71c1.42,1.42,2.75,2.9,4,4.42A59.25,59.25,0,0,1,37.37,37.37Z"/><path class="cls-2" d="M101.86,28.67V73.2c-.24-.26-.49-.51-.74-.76A70.62,70.62,0,0,0,63,52.68a69.33,69.33,0,0,0-11.31-1,69.33,69.33,0,0,0,1,11.31,70.62,70.62,0,0,0,19.76,38.15c.25.25.5.5.76.74H28.67l.75-.74A70.64,70.64,0,0,0,49.19,63a71.62,71.62,0,0,0,1-11.31,69.35,69.35,0,0,0-11.32,1A70.62,70.62,0,0,0,.74,72.44L0,73.2V28.67l.74.75A70.64,70.64,0,0,0,38.89,49.19a71.63,71.63,0,0,0,11.32,1,71.63,71.63,0,0,0-1-11.32A70.64,70.64,0,0,0,29.42.74L28.67,0H73.2l-.76.74A70.62,70.62,0,0,0,52.68,38.89a69.35,69.35,0,0,0-1,11.32,71.62,71.62,0,0,0,11.31-1,70.64,70.64,0,0,0,38.15-19.77Z"/><path class="cls-2" d="M101.7,10.68a60,60,0,0,1-8.55,10.78q-2.13,2.13-4.41,4A59.31,59.31,0,0,1,64.5,37.37,59.63,59.63,0,0,1,91.19.17,12.74,12.74,0,0,1,101.7,10.68Z"/><path class="cls-2" d="M101.7,91.19A12.76,12.76,0,0,1,91.19,101.7,59.6,59.6,0,0,1,64.5,64.5a59.73,59.73,0,0,1,37.2,26.69Z"/><path class="cls-2" d="M37.37,64.5A59.31,59.31,0,0,1,25.46,88.74q-1.87,2.28-4,4.41a60,60,0,0,1-10.78,8.55A12.74,12.74,0,0,1,.17,91.19,59.6,59.6,0,0,1,37.37,64.5Z"/></g></g></svg>