<svg xmlns="http://www.w3.org/2000/svg" viewBox="0 0 481.32 101.86"><defs><style>.cls-1{fill:#42e295;}.cls-2{fill:#115434;}</style></defs><g id="Layer_2" data-name="Layer 2"><g id="Layer_1-2" data-name="Layer 1"><path class="cls-1" d="M37.37,37.37A59.25,59.25,0,0,1,13.13,25.46c-1.52-1.25-3-2.58-4.42-4A59.94,59.94,0,0,1,.17,10.68,12.72,12.72,0,0,1,10.68.17,59.94,59.94,0,0,1,21.46,8.71c1.42,1.42,2.75,2.9,4,4.42A59.25,59.25,0,0,1,37.37,37.37Z"/><path class="cls-1" d="M101.86,28.67V73.2c-.24-.26-.49-.51-.74-.76A70.62,70.62,0,0,0,63,52.68a69.33,69.33,0,0,0-11.31-1,69.33,69.33,0,0,0,1,11.31,70.62,70.62,0,0,0,19.76,38.15c.25.25.5.5.76.74H28.67l.75-.74A70.64,70.64,0,0,0,49.19,63a71.62,71.62,0,0,0,1-11.31,69.35,69.35,0,0,0-11.32,1A70.62,70.62,0,0,0,.74,72.44L0,73.2V28.67l.74.75A70.64,70.64,0,0,0,38.89,49.19a71.63,71.63,0,0,0,11.32,1,71.63,71.63,0,0,0-1-11.32A70.64,70.64,0,0,0,29.42.74L28.67,0H73.2l-.76.74A70.62,70.62,0,0,0,52.68,38.89a69.35,69.35,0,0,0-1,11.32,71.62,71.62,0,0,0,11.31-1,70.64,70.64,0,0,0,38.15-19.77Z"/><path class="cls-1" d="M101.7,10.68a60,60,0,0,1-8.55,10.78q-2.13,2.13-4.41,4A59.31,59.31,0,0,1,64.5,37.37,59.63,59.63,0,0,1,91.19.17,12.74,12.74,0,0,1,101.7,10.68Z"/><path class="cls-1" d="M101.7,91.19A12.76,12.76,0,0,1,91.19,101.7,59.6,59.6,0,0,1,64.5,64.5a59.73,59.73,0,0,1,37.2,26.69Z"/><path class="cls-1" d="M37.37,64.5A59.31,59.31,0,0,1,25.46,88.74q-1.87,2.28-4,4.41a60,60,0,0,1-10.78,8.55A12.74,12.74,0,0,1,.17,91.19,59.6,59.6,0,0,1,37.37,64.5Z"/><path class="cls-2" d="M132.87,50.54a31.47,31.47,0,0,1,3-14.23A21.73,21.73,0,0,1,144.5,27a28.73,28.73,0,0,1,26.74,0,22.25,22.25,0,0,1,8.7,9.29A30.66,30.66,0,0,1,183,50.46a31,31,0,0,1-3.08,14.26,22.46,22.46,0,0,1-8.7,9.37,28.37,28.37,0,0,1-26.71,0,22.3,22.3,0,0,1-8.63-9.37A31.23,31.23,0,0,1,132.87,50.54Zm10,0c0,5.87,1.26,10.47,3.77,13.77s6.28,5,11.26,5,8.57-1.66,11.19-5S173,56.41,173,50.54s-1.3-10.52-3.89-13.78-6.34-4.89-11.23-4.89-8.74,1.63-11.26,4.89S142.87,44.61,142.87,50.54Z"/><path class="cls-2" d="M203.09,76.69,186.94,39.28h9.85L208.5,68.54h-2.3l12-29.26h9.26L211.24,76.69Z"/><path class="cls-2" d="M231.91,32.24v-9H242.2v9Zm.51,44.45V39.28h9.26V76.69Z"/><path class="cls-2" d="M269.09,93.28a36.55,36.55,0,0,1-9.37-1.11,23,23,0,0,1-7.44-3.41l2-6.67a23.42,23.42,0,0,0,4.44,2.3,25.64,25.64,0,0,0,4.74,1.33,27.43,27.43,0,0,0,5,.45q5.18,0,7.74-2.56c1.7-1.7,2.55-4.14,2.55-7.3v-9h.74a11,11,0,0,1-4.78,6.15,15,15,0,0,1-8.26,2.3,16.69,16.69,0,0,1-8.77-2.26,15.17,15.17,0,0,1-5.82-6.48,22.35,22.35,0,0,1-2.07-9.93,22.08,22.08,0,0,1,2.07-9.89,15.21,15.21,0,0,1,5.82-6.45,16.68,16.68,0,0,1,8.77-2.25,15,15,0,0,1,8.26,2.25,10.91,10.91,0,0,1,4.71,6.12l-.67-.45.74-7.18h9c-.2,1.53-.35,3.08-.45,4.66s-.15,3.14-.15,4.67V75.2q0,8.82-4.77,13.45T269.09,93.28Zm-.15-24.6a8.94,8.94,0,0,0,7.08-3q2.63-3,2.63-8.55T276,48.61a9,9,0,0,0-7.08-3,9.2,9.2,0,0,0-7.18,3q-2.67,3-2.67,8.52t2.67,8.55A9.13,9.13,0,0,0,268.94,68.68Z"/><path class="cls-2" d="M297.31,32.24v-9h10.3v9Zm.52,44.45V39.28h9.26V76.69Z"/><path class="cls-2" d="M330.5,77.43a32.46,32.46,0,0,1-8.85-1.15,20.53,20.53,0,0,1-6.78-3.22l2.59-6.23a22.45,22.45,0,0,0,6.22,3,23.63,23.63,0,0,0,6.89,1,9.75,9.75,0,0,0,5.52-1.26,3.94,3.94,0,0,0,1.82-3.4,3.43,3.43,0,0,0-1.15-2.71,8.26,8.26,0,0,0-3.67-1.52l-7.41-1.4A14.12,14.12,0,0,1,318.46,57,9,9,0,0,1,316,50.39a10.38,10.38,0,0,1,1.89-6.15,12.52,12.52,0,0,1,5.41-4.19,20.75,20.75,0,0,1,8.26-1.51,26.81,26.81,0,0,1,7.81,1.11A16.37,16.37,0,0,1,345.54,43l-2.67,6a18.38,18.38,0,0,0-11-3.93c-2.57,0-4.44.46-5.63,1.37a4.27,4.27,0,0,0-1.77,3.52,3.66,3.66,0,0,0,1.07,2.71,6.89,6.89,0,0,0,3.37,1.59l7.41,1.41A14.86,14.86,0,0,1,343.8,59a8.57,8.57,0,0,1,2.55,6.55,10.26,10.26,0,0,1-2,6.37A12.46,12.46,0,0,1,338.8,76,22.44,22.44,0,0,1,330.5,77.43Z"/><path class="cls-2" d="M369.91,77.43q-6.68,0-10.07-3.49T356.43,63.5V46.24h-7.19v-7h7.19V29.72l9.26-2.37V39.28h10v7h-10V62.91q0,3.86,1.48,5.4a5.34,5.34,0,0,0,4.07,1.56,11.19,11.19,0,0,0,2.41-.22,14.75,14.75,0,0,0,2-.59v7.33a13.82,13.82,0,0,1-2.77.78A17.79,17.79,0,0,1,369.91,77.43Z"/><path class="cls-2" d="M382,76.69V48.61c0-1.53-.05-3.09-.14-4.67s-.25-3.13-.45-4.66h9l.74,7.4h-.88a12.8,12.8,0,0,1,4.77-6,13.53,13.53,0,0,1,7.67-2.14A12.26,12.26,0,0,1,410,40.65a11.29,11.29,0,0,1,4.11,6.55H413a13.06,13.06,0,0,1,5.11-6.33,14.46,14.46,0,0,1,8.15-2.33q6.29,0,9.41,3.7t3.11,11.56V76.69h-9.26V54.17c0-3-.5-5.1-1.48-6.41a5.56,5.56,0,0,0-4.75-2,7.45,7.45,0,0,0-6.07,2.7A11.14,11.14,0,0,0,415,55.8V76.69h-9.26V54.17c0-3-.5-5.1-1.48-6.41a5.55,5.55,0,0,0-4.74-2,7.33,7.33,0,0,0-6,2.7,11.25,11.25,0,0,0-2.19,7.3V76.69Z"/><path class="cls-2" d="M466.65,77.43q-9.4,0-14.74-5.19T446.58,58a21.55,21.55,0,0,1,2.3-10.22,16.78,16.78,0,0,1,6.4-6.82,18.42,18.42,0,0,1,9.6-2.44,16.59,16.59,0,0,1,9,2.29,14.55,14.55,0,0,1,5.52,6.45,23.19,23.19,0,0,1,1.89,9.7v2.45H454.06V54.54h20.67l-1.26,1c0-3.45-.73-6.1-2.19-7.92A7.6,7.6,0,0,0,465,44.91a8.33,8.33,0,0,0-7.07,3.26q-2.49,3.26-2.49,9.11v1q0,6.07,3,9.07t8.49,3a20.16,20.16,0,0,0,6-.85,16.44,16.44,0,0,0,5.29-2.78l2.75,6.23a19.62,19.62,0,0,1-6.38,3.33A25.54,25.54,0,0,1,466.65,77.43Z"/></g></g></svg>