<svg xmlns="http://www.w3.org/2000/svg" viewBox="0 0 439.69 101.86"><defs><style>.cls-1{fill:#4ea6cc;}.cls-2{fill:#123644;}</style></defs><g id="Layer_2" data-name="Layer 2"><g id="Layer_1-2" data-name="Layer 1"><path class="cls-1" d="M37.37,37.37A59.25,59.25,0,0,1,13.13,25.46c-1.52-1.25-3-2.58-4.42-4A59.94,59.94,0,0,1,.17,10.68,12.72,12.72,0,0,1,10.68.17,59.94,59.94,0,0,1,21.46,8.71c1.42,1.42,2.75,2.9,4,4.42A59.25,59.25,0,0,1,37.37,37.37Z"/><path class="cls-1" d="M101.86,28.67V73.2c-.24-.26-.49-.51-.74-.76A70.62,70.62,0,0,0,63,52.68a69.33,69.33,0,0,0-11.31-1,69.33,69.33,0,0,0,1,11.31,70.62,70.62,0,0,0,19.76,38.15c.25.25.5.5.76.74H28.67l.75-.74A70.64,70.64,0,0,0,49.19,63a71.62,71.62,0,0,0,1-11.31,69.35,69.35,0,0,0-11.32,1A70.62,70.62,0,0,0,.74,72.44L0,73.2V28.67l.74.75A70.64,70.64,0,0,0,38.89,49.19a71.63,71.63,0,0,0,11.32,1,71.63,71.63,0,0,0-1-11.32A70.64,70.64,0,0,0,29.42.74L28.67,0H73.2l-.76.74A70.62,70.62,0,0,0,52.68,38.89a69.35,69.35,0,0,0-1,11.32,71.62,71.62,0,0,0,11.31-1,70.64,70.64,0,0,0,38.15-19.77Z"/><path class="cls-1" d="M101.7,10.68a60,60,0,0,1-8.55,10.78q-2.13,2.13-4.41,4A59.31,59.31,0,0,1,64.5,37.37,59.63,59.63,0,0,1,91.19.17,12.74,12.74,0,0,1,101.7,10.68Z"/><path class="cls-1" d="M101.7,91.19A12.76,12.76,0,0,1,91.19,101.7,59.6,59.6,0,0,1,64.5,64.5a59.73,59.73,0,0,1,37.2,26.69Z"/><path class="cls-1" d="M37.37,64.5A59.31,59.31,0,0,1,25.46,88.74q-1.87,2.28-4,4.41a60,60,0,0,1-10.78,8.55A12.74,12.74,0,0,1,.17,91.19,59.6,59.6,0,0,1,37.37,64.5Z"/><path class="cls-2" d="M132.87,51.57a31.46,31.46,0,0,1,3-14.22,21.81,21.81,0,0,1,8.63-9.3,28.81,28.81,0,0,1,26.74,0,22.34,22.34,0,0,1,8.7,9.3A30.66,30.66,0,0,1,183,51.5a31.07,31.07,0,0,1-3.08,14.26,22.52,22.52,0,0,1-8.7,9.37,28.45,28.45,0,0,1-26.71,0,22.36,22.36,0,0,1-8.63-9.37A31.27,31.27,0,0,1,132.87,51.57Zm10,0q0,8.82,3.77,13.78t11.26,5q7.26,0,11.19-5T173,51.57q0-8.88-3.89-13.78T157.9,32.91q-7.47,0-11.26,4.88T142.87,51.57Z"/><path class="cls-2" d="M203.09,77.72,186.94,40.31h9.85L208.5,69.57h-2.3l12-29.26h9.26L211.24,77.72Z"/><path class="cls-2" d="M231.91,33.28v-9H242.2v9Zm.51,44.44V40.31h9.26V77.72Z"/><path class="cls-2" d="M251.76,77.72V23.2H261V77.72Z"/><path class="cls-2" d="M288,78.46a20.13,20.13,0,0,1-10-2.37,16.45,16.45,0,0,1-6.56-6.74A21.78,21.78,0,0,1,269.09,59a21.56,21.56,0,0,1,2.33-10.33A16.56,16.56,0,0,1,278,41.94a20.13,20.13,0,0,1,10-2.37,20.34,20.34,0,0,1,10,2.37,16.38,16.38,0,0,1,6.59,6.71A21.44,21.44,0,0,1,306.94,59a21.66,21.66,0,0,1-2.33,10.37A16.28,16.28,0,0,1,298,76.09,20.34,20.34,0,0,1,288,78.46Zm0-7.11a8.64,8.64,0,0,0,7-3.07q2.6-3.07,2.6-9.3c0-4.15-.87-7.23-2.6-9.26a9.49,9.49,0,0,0-13.92,0c-1.73,2-2.6,5.11-2.6,9.26s.87,7.25,2.6,9.3A8.64,8.64,0,0,0,288,71.35Z"/><path class="cls-2" d="M329.46,78.46a15.94,15.94,0,0,1-8.63-2.33,15.53,15.53,0,0,1-5.81-6.7A24.26,24.26,0,0,1,312.94,59,24,24,0,0,1,315,48.57a15.48,15.48,0,0,1,5.81-6.66,15.94,15.94,0,0,1,8.63-2.34,15.21,15.21,0,0,1,8.26,2.26,10.83,10.83,0,0,1,4.78,6.11h-1V23.2h9.26V77.72h-9.11V69.8h.89a11.18,11.18,0,0,1-4.78,6.33A15,15,0,0,1,329.46,78.46Zm2.6-7.11a8.84,8.84,0,0,0,7-3.07q2.67-3.07,2.67-9.3c0-4.15-.89-7.23-2.67-9.26a8.91,8.91,0,0,0-7-3,9,9,0,0,0-7.08,3c-1.8,2-2.7,5.11-2.7,9.26s.9,7.25,2.7,9.3A9,9,0,0,0,332.06,71.35Z"/><path class="cls-2" d="M378.21,94.32a36,36,0,0,1-9.37-1.12,23,23,0,0,1-7.45-3.4l2-6.67a23.79,23.79,0,0,0,4.45,2.3,26.21,26.21,0,0,0,4.74,1.33,27.31,27.31,0,0,0,5,.44q5.19,0,7.74-2.55c1.7-1.7,2.56-4.14,2.56-7.3v-9h.74a11,11,0,0,1-4.78,6.15,15,15,0,0,1-8.26,2.29,16.61,16.61,0,0,1-8.78-2.26A15.1,15.1,0,0,1,361,68.09a22.14,22.14,0,0,1-2.08-9.92A21.92,21.92,0,0,1,361,48.28a15.25,15.25,0,0,1,5.81-6.45,16.7,16.7,0,0,1,8.78-2.26,15,15,0,0,1,8.26,2.26,11,11,0,0,1,4.7,6.11l-.66-.44.74-7.19h9c-.2,1.54-.35,3.09-.45,4.67s-.14,3.14-.14,4.67V76.24q0,8.82-4.78,13.45T378.21,94.32Zm-.15-24.6a8.92,8.92,0,0,0,7.07-3q2.63-3,2.63-8.55t-2.63-8.52a9,9,0,0,0-7.07-3,9.18,9.18,0,0,0-7.19,3c-1.78,2-2.66,4.81-2.66,8.52s.88,6.55,2.66,8.55A9.13,9.13,0,0,0,378.06,69.72Z"/><path class="cls-2" d="M425,78.46q-9.4,0-14.74-5.18T405,59.06a21.71,21.71,0,0,1,2.29-10.23A16.91,16.91,0,0,1,413.65,42a18.41,18.41,0,0,1,9.59-2.45,16.6,16.6,0,0,1,9,2.3,14.58,14.58,0,0,1,5.52,6.44A23.23,23.23,0,0,1,439.69,58v2.44H412.43V55.57H433.1l-1.26,1q0-5.19-2.19-7.93a7.63,7.63,0,0,0-6.33-2.74,8.39,8.39,0,0,0-7.08,3.26c-1.65,2.18-2.48,5.21-2.48,9.11v1q0,6.07,3,9.07t8.48,3a20.18,20.18,0,0,0,6-.85,16.64,16.64,0,0,0,5.29-2.78l2.75,6.22a19.44,19.44,0,0,1-6.38,3.34A25.58,25.58,0,0,1,425,78.46Z"/></g></g></svg>