<svg xmlns="http://www.w3.org/2000/svg" viewBox="0 0 64.88 65"><defs><style>.cls-1{fill:#6441e5;}</style></defs><g id="Layer_2" data-name="Layer 2"><g id="Layer_1-2" data-name="Layer 1"><g id="Layer_2-2" data-name="Layer 2"><g id="Tech"><path id="call" class="cls-1" d="M63.75,56.3c-2,6.06-9.88,9.09-15.47,8.66a49.1,49.1,0,0,1-22.34-9.31A74,74,0,0,1,2.81,28.11a23.27,23.27,0,0,1,1-23.78A9.3,9.3,0,0,1,11.08,0c4.34,0,5.07,2.34,6.63,6.32,1.13,2.95,2.64,6,3.51,9,1.56,5.76-3.94,6-4.68,10.61-.43,3,3.16,6.93,4.77,9.05a42.91,42.91,0,0,0,11.3,10.4c2.47,1.56,6.45,4.33,9.27,2.81,4.33-2.38,3.94-9.7,10-7.23a95.57,95.57,0,0,1,9.22,4.76c4.64,2.52,4.33,5.07,2.65,10.48C62.4,60.28,64.91,52.27,63.75,56.3Z"/></g></g></g></g></svg>