<svg xmlns="http://www.w3.org/2000/svg" viewBox="0 0 65 64.99"><defs><style>.cls-1{fill:#6441e5;}</style></defs><g id="Layer_2" data-name="Layer 2"><g id="Layer_1-2" data-name="Layer 1"><g id="Layer_2-2" data-name="Layer 2"><g id="Users"><path id="profile" class="cls-1" d="M44.71,34.68a19.49,19.49,0,1,0-27.4-3,19.09,19.09,0,0,0,3,3A31.27,31.27,0,0,0,0,65H65A31.27,31.27,0,0,0,44.71,34.68ZM19.51,19.51a13,13,0,1,1,13,13A13,13,0,0,1,19.51,19.51ZM32.5,39A24.64,24.64,0,0,1,57.77,58.49H7.23A24.64,24.64,0,0,1,32.5,39Z"/></g></g></g></g></svg>