<svg xmlns="http://www.w3.org/2000/svg" viewBox="0 0 65 64.54"><defs><style>.cls-1{fill:#6441e5;}</style></defs><g id="Layer_2" data-name="Layer 2"><g id="Layer_1-2" data-name="Layer 1"><g id="Layer_2-2" data-name="Layer 2"><g id="Utils"><path id="star_favorite" data-name="star favorite" class="cls-1" d="M32.5,11.12l7.38,10.13,1.18,1.64,1.9.66,9.84,3.6,2,.76-2.65,4-4.66,7.05L46.44,40.5v15l-1.74-.53L34.43,51.82l-2-.59-2,.62-10,3.28-1.68.52V53.46l-.26-11V40.6l-1-1.57L10.1,27.91l2-.76L22,23.55l2-.59,1.15-1.64,6.36-8.76ZM32.5,0,19.68,17.38,0,24.6l12,18,.52,21.91,20-6.36,20.2,6.23c0-7.25.23-14.5.33-21.78l12-18L45.32,17.38Z"/></g></g></g></g></svg>