<svg xmlns="http://www.w3.org/2000/svg" viewBox="0 0 65 65"><defs><style>.cls-1{fill:#ff5050;}</style></defs><g id="Layer_2" data-name="Layer 2"><g id="Layer_1-2" data-name="Layer 1"><g id="Layer_2-2" data-name="Layer 2"><g id="Emoji"><path id="emoji_sad_circle" data-name="emoji sad circle" class="cls-1" d="M16.61,48.23c3.25-16.64,28.5-16.64,31.78,0A3.25,3.25,0,0,1,45.7,52a3.43,3.43,0,0,1-.56,0h0a3.25,3.25,0,0,1-3.25-2.63,9.75,9.75,0,0,0-18.91,0A3.25,3.25,0,0,1,19.73,52h0a3.24,3.24,0,0,1-3.16-3.34A2.09,2.09,0,0,1,16.61,48.23ZM65,32.5A32.5,32.5,0,1,1,32.5,0,32.5,32.5,0,0,1,65,32.5Zm-6.5,0a26,26,0,1,0-26,26A26,26,0,0,0,58.5,32.5Zm-39-13A6.5,6.5,0,1,0,26,26,6.5,6.5,0,0,0,19.5,19.5Zm26,0A6.5,6.5,0,1,0,52,26,6.5,6.5,0,0,0,45.5,19.5Z"/></g></g></g></g></svg>