<svg xmlns="http://www.w3.org/2000/svg" viewBox="0 0 65 64.82"><defs><style>.cls-1{fill:#6441e5;}</style></defs><g id="Layer_2" data-name="Layer 2"><g id="Layer_1-2" data-name="Layer 1"><g id="Layer_2-2" data-name="Layer 2"><g id="Network_Web" data-name="Network Web"><path id="share" class="cls-1" d="M51.93,19A12.71,12.71,0,0,0,42.2,23.6L26,14.19a13,13,0,1,0-2.27,6.2l15.63,9a12.09,12.09,0,0,0,0,5.22L23.2,43.86a13,13,0,1,0,2.59,6L42.2,40.43A13,13,0,1,0,51.93,19ZM13,19.38a6.49,6.49,0,1,1,6.49-6.49A6.48,6.48,0,0,1,13,19.38Zm0,38.91a6.49,6.49,0,1,1,6.49-6.48A6.48,6.48,0,0,1,13,58.29ZM51.93,38.45A6.49,6.49,0,1,1,58.41,32,6.5,6.5,0,0,1,51.93,38.45Z"/></g></g></g></g></svg>