<svg xmlns="http://www.w3.org/2000/svg" viewBox="0 0 65 65"><defs><style>.cls-1{fill:#6441e5;}</style></defs><g id="Layer_2" data-name="Layer 2"><g id="Layer_1-2" data-name="Layer 1"><g id="Layer_2-2" data-name="Layer 2"><g id="Shop"><path id="tag_round" data-name="tag round" class="cls-1" d="M51.76,23h0c-.54-.58-22.58-22.58-22-22a3.4,3.4,0,0,0-2.41-1H6.78A6.79,6.79,0,0,0,0,6.78H0V27.35a3.4,3.4,0,0,0,1,2.41L34.23,63h0a6.79,6.79,0,0,0,9.59,0h0L63,43.83a6.79,6.79,0,0,0,0-9.59h0ZM36.64,55.79,7.29,26.44a1.59,1.59,0,0,1-.51-1.19V10.17a3.39,3.39,0,0,1,3.39-3.39H25.25a1.59,1.59,0,0,1,1.19.51L55.79,36.64a3.38,3.38,0,0,1,0,4.78L41.42,55.79A3.38,3.38,0,0,1,36.64,55.79ZM12.91,16.3h0a3.39,3.39,0,0,1,3.39-3.39h0a3.39,3.39,0,0,1,3.39,3.39h0a3.38,3.38,0,0,1-3.39,3.39h0a3.39,3.39,0,0,1-3.39-3.39Z"/></g></g></g></g></svg>