<svg xmlns="http://www.w3.org/2000/svg" viewBox="0 0 65 52.72"><defs><style>.cls-1{fill:#FFFFFF;}</style></defs><g id="Layer_2" data-name="Layer 2"><g id="Layer_1-2" data-name="Layer 1"><g id="Layer_2-2" data-name="Layer 2"><g id="Social"><path id="twitter" class="cls-1" d="M20.44,52.72A37.68,37.68,0,0,0,58.5,15.44V13.07A27,27,0,0,0,65,6.14a27.25,27.25,0,0,1-7.67,2.12A13.57,13.57,0,0,0,63.21.88a26.67,26.67,0,0,1-8.48,3.25A13.36,13.36,0,0,0,32,16.15,38,38,0,0,1,4.52,2.34,13.36,13.36,0,0,0,8.65,20.15,13.22,13.22,0,0,1,2.6,18.46h0a13.35,13.35,0,0,0,10.69,13,13.41,13.41,0,0,1-6,.23A13.39,13.39,0,0,0,19.73,41a26.83,26.83,0,0,1-16.48,6A27.12,27.12,0,0,1,0,46.74a38.06,38.06,0,0,0,20.44,6"/></g></g></g></g></svg>