<svg xmlns="http://www.w3.org/2000/svg" viewBox="0 0 64.99 65"><defs><style>.cls-1{fill:#6441e5;}</style></defs><g id="Layer_2" data-name="Layer 2"><g id="Layer_1-2" data-name="Layer 1"><g id="Layer_2-2" data-name="Layer 2"><g id="Social"><path id="whatsapp" class="cls-1" d="M32.49,0h0A32.5,32.5,0,0,0,6.16,51.54l-4,12.06,12.48-4A32.16,32.16,0,0,0,32.49,65a32.5,32.5,0,0,0,0-65ZM51.4,45.89a9.22,9.22,0,0,1-6.5,4.58c-1.69.36-3.93.65-11.37-2.44-8.29-3.47-19.92-15.86-19.92-24.11,0-4.19,2.4-9.07,6.66-9.07,2,0,2.47,0,3.25,1.66s2.66,6.5,2.89,7c.94,1.95-.94,3.25-2.31,4.81a1.55,1.55,0,0,0-.39,2.05A30.28,30.28,0,0,0,29,36.89a24.59,24.59,0,0,0,7.64,4.71,2.06,2.06,0,0,0,2.27-.36A39.94,39.94,0,0,0,41.43,38a1.85,1.85,0,0,1,2.34-.71A68.37,68.37,0,0,1,52,41.37,8.15,8.15,0,0,1,51.4,45.89Z"/></g></g></g></g></svg>